<svg viewBox="0 0 316 81" fill="none" xmlns="http://www.w3.org/2000/svg">
    <style>
        #scout { fill: #000 } @media (prefers-color-scheme:dark) { #scout { fill: #fff } }
    </style>
    <path id="scout" fill-rule="evenodd" clip-rule="evenodd" d="M105.4 50.6H116.6V54.8H100.1V29.2001H105.4V50.6ZM130.3 54.8C130 54.3 129.9 53.7 129.8 53.1C128.6 54.5 126.8 55.2 125 55.1C123.1 55.1 121.6 54.6 120.4 53.5C119.2 52.5 118.5 51.0001 118.6 49.4001C118.6 47.4001 119.4 45.8 120.8 44.8C122.3 43.7 124.5 43.2001 127.3 43.2001H129.6V42.1C129.6 41.2 129.4 40.5 128.9 40C128.5 39.5 127.7 39.2001 126.8 39.2001C126 39.2001 125.3 39.4 124.8 39.8C124.3 40.2 124.1 40.8 124.1 41.5H119C119 40.4 119.3 39.4001 120 38.4001C120.7 37.4001 121.7 36.7001 122.9 36.2001C124.2 35.6001 125.7 35.4001 127.1 35.4001C129.4 35.4001 131.3 36.0001 132.7 37.2001C134.1 38.4001 134.8 40.0001 134.8 42.2001V50.4001C134.8 52.2001 135.1 53.6 135.6 54.5V54.8H130.3ZM126.1 51.3C126.9 51.3 127.5 51.1 128.2 50.8C128.8 50.5 129.3 50 129.6 49.5V46.2001H127.7C125.2 46.2001 123.8 47.1 123.7 48.8V49.1C123.7 49.7 123.9 50.3001 124.4 50.7001C124.8 51.1001 125.5 51.3 126.1 51.3ZM149.3 40.6C148.6 40.5 148 40.5 147.5 40.5C145.6 40.5 144.3 41.2 143.7 42.5V54.9001H138.6V35.9001H143.4L143.5 38.2001C144.5 36.4001 145.9 35.6 147.7 35.6C148.3 35.6 148.8 35.7 149.3 35.8V40.6ZM162.3 54.8C162 54.3 161.9 53.7 161.8 53.1C160.6 54.5 158.8 55.2 157 55.1C155.1 55.1 153.6 54.6 152.4 53.5C151.2 52.5 150.5 51.0001 150.6 49.4001C150.6 47.4001 151.4 45.8 152.8 44.8C154.3 43.7 156.5 43.2001 159.3 43.2001H161.6V42.1C161.6 41.2 161.4 40.5 160.9 40C160.5 39.5 159.7 39.2001 158.8 39.2001C157.9 39.2001 157.3 39.4 156.8 39.8C156.3 40.2 156.1 40.8 156.1 41.5H151C151 40.4 151.3 39.4001 152 38.4001C152.7 37.4001 153.7 36.7001 154.9 36.2001C156.2 35.7001 157.6 35.4001 159.1 35.4001C161.5 35.4001 163.3 36.0001 164.7 37.2001C166.1 38.4001 166.8 40.0001 166.8 42.2001V50.4001C166.8 52.2001 167.1 53.6 167.6 54.5V54.8H162.3ZM158.1 51.3C158.9 51.3 159.5 51.1 160.2 50.8C160.8 50.5 161.3 50 161.6 49.5V46.2001H159.7C157.2 46.2001 155.8 47.1 155.6 48.8V49.1C155.6 49.7 155.8 50.3001 156.3 50.7001C156.7 51.1001 157.4 51.3 158.1 51.3ZM177.4 48.6L180.9 35.8H186.2L179.8 54.8H175L168.6 35.8H173.9L177.4 48.6ZM197 55.2001C194.2 55.2001 191.9 54.4 190.2 52.6C188.4 50.9 187.6 48.6 187.6 45.8V45.3C187.6 43.4 188 41.7001 188.7 40.2001C189.4 38.8001 190.5 37.5001 191.8 36.7001C193.2 35.9001 194.8 35.5 196.4 35.5C199 35.5 201 36.3 202.5 38C204 39.7 204.7 42 204.7 45V47H192.6C192.7 48.1 193.2 49.2 194.1 50C195 50.8 196.1 51.2 197.2 51.1C199.2 51.1 200.7 50.4 201.8 49L204.3 51.8C203.5 52.9 202.4 53.8 201.2 54.3C200 54.9 198.6 55.2001 197 55.2001ZM196.4 39.6C195.4 39.6 194.6 39.9 193.9 40.6C193.2 41.4 192.8 42.4 192.7 43.5H199.8V43.1C199.8 42 199.5 41.1 198.9 40.5C198.3 39.9 197.5 39.6 196.4 39.6ZM213.1 54.8H208V27.8H213.1V54.8Z" fill="black"/>
    <path id="scout" fill-rule="evenodd" clip-rule="evenodd" d="M243 48.5C243 47.1 242.5 46 241.5 45.1C240.5 44.2 238.7 43.5 236 42.8C233.4 42 231.4 41.2 230.2 40.4C228.6 39.3 227.6 37.5 227.6 35.5C227.6 33.5 228.4 32 230 30.7C231.6 29.5 233.7 28.9 236.2 28.9C237.9 28.9 239.4 29.2 240.8 29.9C243.4 31.1 245.1 33.7 245 36.6H242.8C242.8 34.9 242.2 33.4 241 32.4C239.8 31.3 238.2 30.8 236.2 30.8C234.2 30.8 232.7 31.2 231.5 32.1C230.4 32.9 229.7 34.2 229.8 35.5C229.8 36.8 230.3 37.9 231.4 38.7C232.5 39.5 234.1 40.2 236.4 40.9C238.2 41.3 240 42 241.6 42.9C242.7 43.5 243.6 44.3 244.3 45.3C244.9 46.2 245.2 47.3 245.2 48.6C245.2 50.6 244.4 52.2 242.8 53.4C241.2 54.6 239.1 55.2 236.4 55.2C234.6 55.2 232.9 54.9 231.4 54.2C230 53.7 228.8 52.7 228 51.5C227.2 50.3 226.8 48.9 226.8 47.5H229C229 49.3 229.7 50.7 231 51.8C232.3 52.9 234.1 53.4 236.4 53.4C238.4 53.4 240 53 241.2 52.1C242.3 51.3 243 49.9 243 48.5ZM256.4 53.4C257.9 53.4 259.1 53 260.1 52.2C261.1 51.4 261.7 50.2 261.7 49H263.7C263.6 50.1 263.3 51.2 262.6 52.2C261.9 53.2 261 53.9 260 54.4C258.9 54.9 257.7 55.2 256.4 55.2C253.9 55.2 251.9 54.3 250.5 52.6C249.1 50.9 248.3 48.5 248.3 45.6V45C248.3 43.1 248.6 41.5 249.3 40C249.9 38.6 250.9 37.5 252.1 36.7C253.4 35.9 254.9 35.5 256.4 35.5C258.5 35.5 260.2 36.1 261.6 37.4C263 38.7 263.7 40.4 263.8 42.3H261.8C261.8 40.9 261.2 39.6 260.2 38.7C259.2 37.8 257.9 37.3 256.5 37.3C254.6 37.3 253.1 38 252.1 39.4C251 40.8 250.5 42.7 250.5 45.2V45.8C250.5 48.2 251 50.1 252.1 51.5C253 52.7 254.7 53.5 256.4 53.4ZM281.3 38.1C279.7 36.3 277.7 35.4 275.1 35.4C273.5 35.4 272 35.8 270.7 36.6C269.4 37.4 268.4 38.6 267.7 40C267 41.5 266.6 43.1 266.6 44.9V45.3C266.6 48.2 267.4 50.6 269 52.4C270.5 54.2 272.8 55.1 275.1 55.1C278.3 55.2 281.2 53.4 282.5 50.5C283.2 49 283.6 47.4 283.6 45.5V45.1C283.7 42.3 282.9 39.9 281.3 38.1ZM281.6 45.4C281.6 47.8 281 49.7 279.8 51.2C278.6 52.7 277.1 53.4 275.2 53.4C273.4 53.4 271.7 52.6 270.6 51.2C269.4 49.7 268.8 47.9 268.8 45.6V45.2C268.8 42.8 269.4 40.9 270.6 39.4C271.8 37.9 273.3 37.2 275.2 37.2C276.4 37.2 277.6 37.5 278.5 38.2C279.5 38.9 280.3 39.9 280.8 41C281.3 42.2 281.6 43.5 281.6 45V45.4ZM300.3 52.4C299 54.2 297 55.2 294.2 55.2C292.2 55.2 290.6 54.6 289.6 53.4C288.5 52.2 288 50.5 288 48.2V35.8H290.1V47.9C290.1 51.5 291.6 53.3 294.5 53.3C297.5 53.3 299.5 52 300.3 49.5V35.8H302.4V54.8H300.4L300.3 52.4ZM311.1 30.9V35.8H315V37.5H311.1V50.2C311.1 51.2 311.3 52 311.7 52.5C312.1 53 312.7 53.3 313.6 53.3C314 53.3 314.5 53.2 315.3 53.1L315.4 54.8C314.9 55 314.1 55.1 313.2 55.1C311.8 55.1 310.7 54.7 310.1 53.8C309.5 53 309.1 51.7 309.1 50.1V37.5H305.6V35.8H309.1V30.9H311.1Z" fill="black"/>
    <path d="M0.300003 48.8L40.3 70.8L80.3 48.8V58.8L40.3 80.8L0.300003 58.8V48.8ZM0.300003 0.800049L40.3 22.8L80.3 0.800049V38.8L40.3 60.8L0.300003 38.8V0.800049Z" fill="url(#gradient)"/>
    <defs>
        <linearGradient id="gradient" x1="40.261" y1="0.804049" x2="40.261" y2="80.804" gradientUnits="userSpaceOnUse">
            <stop stop-color="#F1CF88"/>
            <stop offset="1" stop-color="#F65A5A"/>
        </linearGradient>
    </defs>
</svg>
